<svg viewBox="0 0 29 32" height="32" width="29" xmlns="http://www.w3.org/2000/svg">
  <g transform="translate(23723 111)" id="left">
    <g transform="translate(-23723 -111)" data-sanitized-data-name="Forma 1 copy 2" data-name="Forma 1 copy 2" id="Forma_1_copy_2">
      <path fill="#888" transform="translate(0 0)" d="M18.959.43C10.294-1.927,2,5.79.266,14.068c-.983,4.7.88,9.333,3.563,13.028,3.2,4.413,7.052,4.1,11.735,4.483.007,0,.008.007.016.01,6.641,2.575,11.6-7.612,12.946-12.843C30.463,11.216,26.307,2.43,18.959.43Z" data-sanitized-data-name="Forma 1 copy 2" data-name="Forma 1 copy 2" id="Forma_1_copy_2-2"></path>
    </g>
    <g transform="translate(-23718.803 -101.002)" data-sanitized-data-name="Forma 1 copy 3" data-name="Forma 1 copy 3" id="Forma_1_copy_3">
      <path fill="#fff" transform="translate(-0.096 -0.2)" d="M.233,6.432Q1.535,4.851,4.791.2S6.837,1.874,6.837,1.967A39.575,39.575,0,0,1,4.512,5.688L16.139,5.5a16.535,16.535,0,0,0,1.767-2.79c.93-1.674.651-1.3,1.023-1.86,0,0,1.86.651,1.767,1.116a34.3,34.3,0,0,1-1.488,3.721A11.977,11.977,0,0,0,18.65,6.9a2.545,2.545,0,0,1-.372.465c.186-.093,0,0,0,.093h0l-.093.093c-.186.186-.465.651-1.023.651H5.07l2.79,2.79A17.062,17.062,0,0,1,5.628,12.2C3.4,10.246,4.233,10.99,3.116,10.06.7,7.92.884,8.013.512,7.734a.932.932,0,0,1-.186-1.4Z" data-sanitized-data-name="Path 80668" data-name="Path 80668" id="Path_80668"></path>
    </g>
  </g>
</svg>
