<svg viewBox="0 0 29 32" height="32" width="29" xmlns="http://www.w3.org/2000/svg">
  <g transform="translate(23723 111)" data-sanitized-data-name="Group 19683" data-name="Group 19683" id="Group_19683">
    <g transform="translate(-23723 -111)" data-sanitized-data-name="Forma 1 copy 2" data-name="Forma 1 copy 2" id="Forma_1_copy_2">
      <path fill="#888" transform="translate(0 0)" d="M18.959.43C10.294-1.927,2,5.79.266,14.068c-.983,4.7.88,9.333,3.563,13.028,3.2,4.413,7.052,4.1,11.735,4.483.007,0,.008.007.016.01,6.641,2.575,11.6-7.612,12.946-12.843C30.463,11.216,26.307,2.43,18.959.43Z" data-sanitized-data-name="Forma 1 copy 2" data-name="Forma 1 copy 2" id="Forma_1_copy_2-2"></path>
    </g>
    <g transform="translate(-23718.898 -101.202)" data-sanitized-data-name="Forma 1 copy 3" data-name="Forma 1 copy 3" id="Forma_1_copy_3">
      <path fill="#fff" transform="translate(0)" d="M20.563,6.432Q19.261,4.851,16.006.2s-2.046,1.674-2.046,1.767a39.575,39.575,0,0,0,2.325,3.721L4.658,5.5A16.535,16.535,0,0,1,2.89,2.711c-.93-1.674-.651-1.3-1.023-1.86,0,0-1.86.651-1.767,1.116A34.3,34.3,0,0,0,1.588,5.688,11.977,11.977,0,0,1,2.146,6.9a2.545,2.545,0,0,0,.372.465c-.186-.093,0,0,0,.093h0l.093.093c.186.186.465.651,1.023.651H15.726l-2.79,2.79A17.062,17.062,0,0,0,15.168,12.2c2.232-1.953,1.4-1.209,2.511-2.139,2.418-2.139,2.232-2.046,2.6-2.325a.932.932,0,0,0,.186-1.4Z" data-sanitized-data-name="Path 80668" data-name="Path 80668" id="Path_80668"></path>
    </g>
  </g>
</svg>
